<svg width="200" height="49" viewBox="0 0 200 49" fill="none" xmlns="http://www.w3.org/2000/svg">
<g clip-path="url(#clip0_18_134)">
<path d="M21.7753 25.3088C17.954 25.3093 14.2184 24.6131 11.0408 23.3082C7.86329 22.0034 5.38655 20.1485 3.92388 17.9782C2.46121 15.8079 2.07831 13.4197 2.82361 11.1156C3.56891 8.81157 5.40893 6.69513 8.11095 5.034C10.813 3.37287 14.2556 2.24167 18.0035 1.78348C21.7513 1.32529 25.636 1.56069 29.1662 2.4599C32.6964 3.35911 35.7136 4.88174 37.8361 6.83522C39.9586 8.78869 41.0911 11.0853 41.0903 13.4344C41.0903 16.5837 39.0553 19.604 35.4331 21.8309C31.8108 24.0578 26.8979 25.3088 21.7753 25.3088ZM21.7753 0.0476074C17.4685 0.0476074 13.2585 0.832732 9.67758 2.3037C6.09666 3.77466 3.30567 5.8654 1.65755 8.31153C0.00943491 10.7577 -0.421788 13.4493 0.418415 16.0461C1.25862 18.6429 3.33251 21.0282 6.37783 22.9004C9.42316 24.7726 13.3031 26.0475 17.5271 26.5641C21.7511 27.0806 26.1294 26.8155 30.1083 25.8023C34.0872 24.7891 37.488 23.0732 39.8807 20.8718C42.2734 18.6703 43.5505 16.0821 43.5505 13.4344C43.5505 9.88404 41.2563 6.47904 37.1727 3.96852C33.089 1.458 27.5504 0.0476074 21.7753 0.0476074Z" fill="white"/>
<path d="M28.9955 15.9968C28.9251 16.0738 28.8307 16.1415 28.7177 16.1961C28.6047 16.2507 28.4753 16.291 28.3369 16.3148C28.1985 16.3386 28.0538 16.3453 27.9112 16.3347C27.7685 16.324 27.6307 16.2962 27.5056 16.2528L24.8314 15.3133V14.5266L25.9393 14.139L28.5943 15.0785C28.8445 15.167 29.0273 15.3129 29.1025 15.4842C29.1777 15.6555 29.1392 15.8382 28.9955 15.9921M23.0245 13.8784L21.7752 14.3199L20.5222 13.876V12.9882L21.7752 12.5444L23.0245 12.9882V13.8784ZM20.6865 8.97219C20.6777 8.88112 20.6993 8.7899 20.7499 8.70414C20.8006 8.61838 20.8792 8.53989 20.981 8.47349C21.0828 8.4071 21.2056 8.35419 21.3418 8.31803C21.4781 8.28187 21.6249 8.26322 21.7733 8.26322C21.9217 8.26322 22.0686 8.28187 22.2048 8.31803C22.3411 8.35419 22.4639 8.4071 22.5657 8.47349C22.6675 8.53989 22.7461 8.61838 22.7967 8.70414C22.8474 8.7899 22.869 8.88112 22.8602 8.97219V10.851L21.7752 11.248L20.6865 10.851V8.97219ZM18.6923 15.2969L16.0182 16.2363C15.8941 16.2872 15.7542 16.3218 15.6074 16.338C15.4606 16.3542 15.3099 16.3516 15.1648 16.3303C15.0196 16.3091 14.8832 16.2697 14.764 16.2146C14.6447 16.1594 14.5453 16.0898 14.4718 16.01C14.3983 15.9302 14.3524 15.8419 14.3369 15.7507C14.3215 15.6595 14.3367 15.5673 14.3818 15.4798C14.4269 15.3924 14.5009 15.3117 14.599 15.2426C14.6972 15.1735 14.8175 15.1177 14.9523 15.0785L17.6265 14.139L18.7114 14.5266L18.6923 15.2969ZM37.5986 18.8362L34.4355 16.5651C34.3948 16.538 34.3486 16.5143 34.2979 16.4947C34.2196 16.4694 34.1324 16.4561 34.0439 16.4561C33.9554 16.4561 33.8682 16.4694 33.7898 16.4947C33.5427 16.5658 33.2714 16.5993 32.9988 16.5923C32.7261 16.5854 32.4602 16.5382 32.2235 16.4547C32.0127 16.3807 31.8307 16.2793 31.6902 16.1577C31.5497 16.036 31.454 15.8969 31.4098 15.7502C31.2965 15.3771 31.0531 15.0235 30.6963 14.7138C30.3396 14.404 29.8779 14.1455 29.3431 13.9559L27.9296 13.4345L35.9788 10.5763L34.9856 9.51471L25.9393 12.7299L24.8505 12.3447V11.5674L33.8968 8.35922L32.8997 7.29767L24.8505 10.1465V9.14834C24.8519 8.76925 24.7189 8.39453 24.461 8.0502C24.2031 7.70587 23.8263 7.4002 23.3568 7.1544C23.1602 7.05093 23.0049 6.92106 22.9029 6.77482C22.8009 6.62858 22.755 6.46989 22.7686 6.31099C22.7823 6.1521 22.8552 5.99727 22.9817 5.85845C23.1082 5.71964 23.2849 5.60055 23.4982 5.5104C23.5718 5.4798 23.6319 5.43849 23.6732 5.39013C23.7145 5.34178 23.7358 5.28789 23.735 5.23327C23.7339 5.1967 23.7249 5.16037 23.7083 5.12524L22.0923 2.30696C22.07 2.26578 22.0272 2.22996 21.97 2.20457C21.9127 2.17919 21.8439 2.16553 21.7733 2.16553C21.7027 2.16553 21.6339 2.17919 21.5767 2.20457C21.5194 2.22996 21.4766 2.26578 21.4543 2.30696L19.8384 5.12524C19.8199 5.16011 19.8109 5.19661 19.8116 5.23327C19.8109 5.28789 19.8321 5.34178 19.8734 5.39013C19.9148 5.43849 19.9749 5.4798 20.0485 5.5104C20.2615 5.60074 20.4379 5.71997 20.5641 5.85889C20.6902 5.99781 20.7627 6.15269 20.776 6.31158C20.7893 6.47046 20.743 6.6291 20.6407 6.77524C20.5384 6.92138 20.3829 7.05111 20.186 7.1544C19.7174 7.40061 19.3411 7.70637 19.0833 8.0506C18.8254 8.39483 18.692 8.76935 18.6923 9.14834V10.1465L10.6469 7.29767L9.64986 8.35922L18.6923 11.5674V12.34L17.6074 12.7299L8.5611 9.51471L7.56784 10.5763L15.6132 13.4345L14.1997 13.9371C13.6644 14.1263 13.2024 14.3847 12.8455 14.6946C12.4887 15.0044 12.2456 15.3581 12.133 15.7314C12.0895 15.878 11.9945 16.017 11.8547 16.1387C11.7148 16.2603 11.5334 16.3618 11.3231 16.4359C11.0864 16.5194 10.8205 16.5666 10.5479 16.5735C10.2753 16.5805 10.004 16.547 9.75683 16.4759C9.67847 16.4506 9.59129 16.4373 9.50278 16.4373C9.41428 16.4373 9.32709 16.4506 9.24874 16.4759C9.19807 16.4955 9.15183 16.5192 9.11121 16.5463L5.94807 18.815C5.90032 18.8475 5.87058 18.8885 5.86312 18.932C5.85566 18.9755 5.87087 19.0194 5.90655 19.0572C5.94224 19.0951 5.99656 19.125 6.0617 19.1427C6.12683 19.1604 6.1994 19.1649 6.26897 19.1556L11.0442 18.606C11.1618 18.5926 11.2687 18.5556 11.3483 18.5008C11.4278 18.4459 11.4754 18.3764 11.4836 18.3031C11.5054 18.1361 11.593 17.9748 11.7387 17.8333C11.8845 17.6917 12.084 17.5741 12.3202 17.4905C12.5317 17.4179 12.7664 17.3746 13.0079 17.3637C13.2494 17.3527 13.4919 17.3743 13.7184 17.427C14.3007 17.5529 14.9204 17.5998 15.535 17.5645C16.1496 17.5292 16.7445 17.4126 17.2788 17.2227L18.6923 16.7225V22.4248H20.6865V16.0038L21.7752 15.6186L22.8602 16.0038V22.4248H24.8505V16.7225L26.2678 17.2227C26.8022 17.4126 27.3971 17.5292 28.0117 17.5645C28.6262 17.5998 29.2459 17.5529 29.8283 17.427C30.0567 17.3768 30.3002 17.3579 30.5418 17.3717C30.7833 17.3855 31.017 17.4316 31.2265 17.5069C31.4626 17.5905 31.6622 17.7082 31.8079 17.8497C31.9537 17.9913 32.0412 18.1525 32.0631 18.3195C32.0698 18.374 32.098 18.4266 32.1453 18.4728C32.1925 18.5191 32.2574 18.5575 32.3343 18.5849C32.3867 18.6029 32.4435 18.6156 32.5024 18.6225L37.2777 19.172C37.3468 19.1801 37.4182 19.175 37.4825 19.1574C37.5467 19.1398 37.6005 19.1104 37.6368 19.0734C37.6697 19.0364 37.6836 18.9942 37.6768 18.9523C37.67 18.9104 37.6427 18.8708 37.5986 18.8385" fill="white"/>
<path d="M166.737 10.7148H159.471V1.7832H152.836V25.0833H159.471V14.8506H166.737V25.0833H173.522V1.7832H166.737V10.7148Z" fill="white"/>
<path d="M64.5656 1.7832L59.5496 10.8604L55.0112 1.7832H48.3907L55.76 16.0695V25.0833H63.133V15.6069L70.7696 1.7832H64.5656Z" fill="white"/>
<path d="M109.232 12.8661L105.545 1.7832H95.1808V25.0833H101.125V7.51841L106.194 22.7888H111.745L116.242 7.27181V25.0833H123.21V1.7832H112.41L109.232 12.8661Z" fill="white"/>
<path d="M185.22 15.783L188.043 5.36242L190.786 15.783H185.22ZM193.746 1.7832H183.481L176.555 25.0833H182.698L184.165 19.6605H191.806L193.227 25.0833H199.996L193.746 1.7832Z" fill="white"/>
<path d="M134.911 15.783L137.734 5.36242L140.477 15.783H134.911ZM133.173 1.7832L126.243 25.0833H132.386L133.857 19.6605H141.497L142.922 25.0833H149.688L143.434 1.7832H133.173Z" fill="white"/>
<path d="M77.2563 15.783L80.0833 5.36242L82.8224 15.783H77.2563ZM75.5181 1.7832L68.5883 25.0833H74.735L76.2058 19.6605H83.8462L85.275 25.0833H92.0406L85.7831 1.7832H75.5181Z" fill="white"/>
<path fill-rule="evenodd" clip-rule="evenodd" d="M179.638 44.9803C183.909 44.8136 188.1 44.938 193.276 44.9122C188.982 44.6774 183.798 44.8253 177.755 44.621C181.212 44.574 185.307 44.6656 187.409 44.7149C190.136 44.6703 195.018 44.7525 198.946 44.7901C198.984 44.7173 198.204 44.7572 197.899 44.7314C198.113 44.5834 199.675 44.6985 200 44.5764C197.887 44.4284 195.347 44.3579 193.093 44.2499C193.387 44.1654 194.869 44.3016 195.194 44.2217C192.195 44.0221 188.123 44.1067 184.696 43.9211C183.504 43.8601 182.637 43.7191 181.548 43.6863C177.866 43.5547 174.095 43.6863 169.992 43.6557C164.72 43.6557 158.887 43.6111 152.969 43.6839C153.382 43.5876 155.059 43.6839 155.491 43.5947C150.838 43.5359 146.238 43.5359 140.974 43.6088L127.313 43.7825L111.971 44.0667L103.769 44.1489L61.6965 45.0696C57.6891 45.1212 53.5174 45.1823 49.6858 45.335L40.2307 45.8258C38.8134 45.9104 37.1936 45.962 35.2033 46.1875C33.0309 46.3556 30.8735 46.5907 28.7395 46.8921C28.3575 46.8921 28.9229 46.9296 28.7395 46.8921C27.4177 47.0424 28.0633 47.2162 26.6919 47.3853C26.7301 47.4487 27.4024 47.3571 27.5399 47.3853C26.8523 47.4933 25.7826 47.6741 26.944 47.6718C26.3175 47.7728 27.2802 47.8268 27.5017 47.8197C29.6449 47.7493 28.3384 48.273 28.9267 48.3693C36.9491 48.6229 42.5572 47.8878 51.4392 47.7117C56.5927 47.5684 62.5446 47.2843 68.2482 47.1786L90.2794 46.6008L103.287 46.3143C106.748 46.2039 110.893 46.1429 113.984 46.0794C120.432 45.9385 127.336 45.6097 134.113 45.5393L146.914 45.4218C146.88 45.3819 146.532 45.3984 146.284 45.396C148.53 45.4406 150.299 45.2363 153.622 45.295C152.037 45.4336 154.192 45.3514 155.303 45.3185C160.571 45.1588 167.486 45.1706 172.086 44.9709L172.926 45.0437C173.163 45.0437 173.041 45.0085 172.926 45.0085H172.716C172.678 44.978 172.796 44.9756 172.926 44.9733C180.242 45.0249 179.638 44.9733 179.638 44.9733" fill="white"/>
<path d="M59.1905 40.4617C59.1675 41.5373 59.2592 41.9436 59.3815 42.1057C58.8067 42.4534 58.0668 42.6796 57.2689 42.7515C57.0337 42.7643 56.7967 42.746 56.574 42.6978C56.3513 42.6496 56.148 42.5726 55.9776 42.4721C55.7523 42.1573 55.8325 41.5538 55.8707 41.2179C56.0731 39.3391 57.1428 36.347 57.586 34.858C57.5931 34.8266 57.5847 34.7946 57.5618 34.7662C57.5389 34.7377 57.5025 34.7143 57.4575 34.6988C57.4125 34.6833 57.3609 34.6765 57.3095 34.6794C57.2581 34.6822 57.2093 34.6945 57.1696 34.7147C52.4821 37.9346 49.0172 40.6566 48.383 41.5749C47.7228 41.7901 47.0308 41.9663 46.3163 42.101C45.8419 42.0051 45.4192 41.8313 45.0938 41.5984C45.0942 41.2265 45.0623 40.8549 44.9983 40.4852C44.7768 39.1136 45.0709 36.4245 44.8226 35.4545C44.7959 35.3512 44.5399 35.316 44.368 35.4357C42.0759 37.7843 39.5087 40.4781 37.5909 42.3452C37.1967 42.6032 36.6944 42.7893 36.1392 42.8831C35.6503 42.8502 34.9932 42.1174 35.2071 41.8849C36.7925 40.2926 36.888 40.3419 39.4705 37.7937C41.7626 35.5156 43.3556 33.9209 43.8714 33.2046C44.0929 32.8993 44.8723 32.7513 45.5141 32.6644C46.0717 32.7575 46.6073 32.8949 47.1071 33.0731C47.6916 34.4987 47.1415 37.5682 47.5388 39.1958C47.5846 39.3719 47.8138 39.3931 48.0125 39.2663C50.8089 37.2606 55.1219 34.4517 57.8534 32.5517C58.5905 32.3184 59.4012 32.1862 60.2296 32.1642C60.6116 32.338 61.2572 32.7091 61.3756 33.0496C60.497 34.3953 59.2325 38.4325 59.1943 40.4617" fill="white"/>
<path d="M84.5567 38.2588C87.4142 37.2818 89.6032 36.4386 91.2688 35.5015C91.7043 35.4938 92.1396 35.5207 92.5639 35.5814C92.8379 35.7569 92.9959 35.9888 93.007 36.2319C92.0978 36.8661 88.0407 37.9957 86.5126 38.5617C86.3713 38.604 86.3675 38.6627 86.4553 38.7355C87.865 39.6068 89.8515 40.6778 91.6852 40.9831C91.7034 41.1514 91.6424 41.3194 91.5095 41.4669C90.9479 41.6689 89.821 42.0306 89.0187 42.0611C86.8144 40.7905 85.3895 39.9709 83.827 39.1183C83.8012 39.1075 83.772 39.1002 83.7412 39.0968C83.7105 39.0935 83.6789 39.0941 83.6486 39.0988C83.6183 39.1034 83.5899 39.112 83.5654 39.1239C83.5408 39.1357 83.5206 39.1507 83.5061 39.1677C82.9476 39.9913 82.5017 40.842 82.1729 41.7112C81.5347 41.9772 80.8027 42.1463 80.0374 42.2044C79.6897 42.1503 78.7041 41.9695 78.5475 41.7934C79.1473 41.2837 80.618 39.5622 82.8605 36.0535C84.6942 33.1671 85.3971 31.9082 84.9922 31.509C85.8487 31.262 86.7603 31.095 87.6969 31.0134C88.1106 31.1559 88.4639 31.3562 88.7284 31.5982C87.2576 33.5522 86.0313 35.2502 84.1861 38.0568C84.1722 38.0881 84.173 38.1211 84.1884 38.1522C84.2039 38.1832 84.2333 38.2109 84.2733 38.232C84.3133 38.2532 84.3622 38.2669 84.4144 38.2716C84.4666 38.2764 84.5199 38.2719 84.5682 38.2588" fill="white"/>
<path d="M101.522 35.0413C103.39 35.0154 105.576 35.2104 105.774 35.9032C106.038 37.0023 102.26 38.597 97.5531 38.1602C96.9141 38.7163 96.6164 39.3936 96.7127 40.0719C96.8006 40.4312 97.301 40.6825 98.2408 40.6591C101.736 40.5745 106.34 39.1865 108.85 37.8971C109.01 38.0005 108.96 38.0733 108.693 38.2494C108.215 38.5618 107.245 38.9235 107.119 39.2828C104.315 40.8281 99.7307 41.9484 96.621 42.0048C94.6612 42.0424 93.817 41.6384 93.6947 40.9057C93.4158 39.1677 96.2772 36.5796 99.6352 35.2198C100.25 35.11 100.886 35.05 101.526 35.0413M97.9046 37.7186C100.197 37.6881 103.398 37.0141 103.272 36.2226C103.207 35.8374 101.614 35.7646 100.525 35.8069C99.5007 36.3598 98.6173 37.0042 97.9046 37.7186Z" fill="white"/>
<path d="M136.645 37.1949C135.358 38.1507 132.413 40.356 132.267 41.0348C131.647 41.3282 130.919 41.5241 130.147 41.6055C129.699 41.5014 129.284 41.3496 128.921 41.1569C128.419 39.9933 128.064 38.8077 127.859 37.6106C127.679 36.4926 127.55 35.9501 127.42 35.262C127.42 35.0976 127.21 35.0389 126.988 35.1586C124.532 36.8144 120.253 39.3039 117.162 41.4458C116.361 41.6655 115.502 41.7951 114.626 41.8286C113.984 41.5468 113.862 41.0254 113.759 40.4194C113.441 38.4701 116.108 34.6842 115.905 33.4301C115.893 33.306 115.948 33.1828 116.062 33.0802C116.62 32.8226 117.257 32.6366 117.934 32.5329C118.182 32.5904 118.405 32.6818 118.586 32.8002C118.767 32.9187 118.902 33.061 118.981 33.2164C119.076 33.8129 118.461 35.0013 117.835 36.2272C117.208 37.4532 116.62 38.7167 116.746 39.4894C116.746 39.5857 116.925 39.6209 117.078 39.5223C120.86 37.6199 124.933 34.8252 126.407 33.5123C127.226 33.2331 128.118 33.0447 129.043 32.9557C129.449 33.0541 129.82 33.2001 130.136 33.3855C130.258 34.137 130.319 35.6941 130.632 37.6129C130.706 38.0976 130.852 38.5772 131.068 39.0455C131.141 39.2076 131.362 39.2099 131.515 39.1113C134.139 37.162 138.105 34.3601 140.37 32.6433C140.855 32.4813 140.981 32.2957 141.608 32.23C141.815 32.2478 142.012 32.2941 142.186 32.3652C142.36 32.4363 142.506 32.5306 142.613 32.641C141.654 33.8341 137.918 36.239 136.63 37.1925" fill="white"/>
<path d="M158.249 35.3535C158.146 36.8237 158.004 37.6082 158.134 38.7073C158.146 38.8779 158.198 39.0465 158.291 39.2075C158.352 39.3038 158.478 39.3391 158.593 39.2404C161.102 37.5641 163.85 36.0298 166.806 34.656C167.375 34.6818 168.254 34.7288 168.693 34.8909C164.285 37.0046 162.367 38.4137 159.49 40.7764C158.662 41.0891 157.737 41.2922 156.774 41.3729C156.122 40.6869 155.737 39.9178 155.647 39.1253C155.553 38.2921 155.534 37.4563 155.59 36.6218C155.59 36.401 154.409 37.0539 154.226 36.8965C154.115 36.8026 154.39 36.4691 154.409 36.2718C155.133 35.8094 155.922 35.3874 156.766 35.0106C157.265 35.0399 157.753 35.1192 158.211 35.2455L158.249 35.3535Z" fill="white"/>
<path d="M190.109 34.5034C190.234 34.659 190.308 34.8282 190.327 35.0013C189.86 35.3016 189.262 35.5121 188.604 35.6072C187.974 35.3534 187.25 35.2007 186.499 35.1633C186.074 35.169 185.657 35.2358 185.281 35.3583C184.398 35.6706 183.993 36.1521 184.051 36.5138C184.1 36.8144 184.387 36.9318 186.434 36.9835C188.574 37.0539 189.766 37.3005 189.873 37.9816C190.106 39.4072 186.052 41.3236 181.201 41.3565C179.18 41.3565 178.446 41.2649 178.24 40.8727C178.034 40.4805 178.45 39.8018 179.505 38.8529C180.027 38.7755 180.571 38.7755 181.094 38.8529C180.714 39.2148 180.524 39.6392 180.547 40.0695C180.631 40.3983 181.155 40.5251 182.259 40.5087C184.914 40.4735 186.843 39.5035 186.683 38.5194C186.625 38.1789 186.251 38.0638 184.161 38.0309C182.072 37.9981 181.289 37.7961 181.205 37.2865C181.048 36.3235 184.566 34.2333 187.088 34.191C188.111 34.2085 189.126 34.3104 190.106 34.494" fill="white"/>
<path d="M150.005 35.3184C150.285 35.195 150.591 35.0954 150.914 35.0225C151.327 35.0426 151.723 35.1311 152.06 35.2784C150.914 36.6265 149.638 38.2611 149.577 39.4824C149.577 39.7525 149.764 39.8629 150.188 39.8746C150.471 39.8746 150.822 39.8582 151.456 39.5035C151.498 39.5333 151.529 39.5682 151.546 39.6059C151.564 39.6435 151.569 39.6831 151.56 39.7219C151.502 39.8535 151.56 39.79 151.46 39.8769C151.147 40.1118 151.437 40.2316 151.078 40.4523C149.821 41.0559 149.038 41.2415 148.022 41.1921C147.773 41.1781 147.539 41.1156 147.352 41.0138C147.165 40.912 147.036 40.7762 146.983 40.6261C146.822 40.0174 146.933 39.3931 147.304 38.8201C147.369 38.7355 147.25 38.6463 147.098 38.7449C144.511 40.403 141.707 41.3284 139.747 41.3706C139.356 41.3608 138.983 41.266 138.695 41.103C138.407 40.94 138.222 40.7194 138.174 40.4805C137.998 39.0338 139.702 36.9929 143.927 35.5157C145.025 35.14 146.269 34.955 147.525 34.9802C148.375 35.0058 149.21 35.1202 149.997 35.3184M141.298 39.5716C141.379 39.8276 141.906 39.8887 142.204 39.8887C143.564 39.8887 146.62 38.5359 148.866 36.1075C148.646 35.9482 148.368 35.8228 148.055 35.7412C147.742 35.6597 147.402 35.6243 147.063 35.6378C145.18 35.6589 140.775 37.9629 141.298 39.5787" fill="white"/>
<path d="M174.324 34.4517C176.196 34.4258 177.843 34.5973 178.041 35.2925C178.305 36.3892 175.39 38.5123 169.698 38.0849C169.289 38.5428 169.178 39.0794 169.388 39.5856C169.472 39.7788 169.667 39.9467 169.937 40.0582C170.206 40.1697 170.533 40.2171 170.855 40.1916C172.848 40.165 174.801 39.8427 176.548 39.2521C176.773 39.3649 176.303 39.5081 176.318 39.588C176.334 39.6678 176.632 39.6655 176.318 39.8228C174.603 40.5603 171.226 41.3846 169.144 41.4128C167.524 41.434 166.611 41.0582 166.493 40.3254C166.214 38.5898 168.926 36.098 172.284 34.7335C172.932 34.5707 173.621 34.4785 174.32 34.4611M170.141 37.5847C173.423 37.4954 175.535 36.4362 175.409 35.6447C175.348 35.2596 174.263 35.1609 173.186 35.2032C172.395 35.5813 170.894 36.8472 170.13 37.5847" fill="white"/>
<path d="M76.729 40.5133C75.9917 40.8233 74.987 41.1146 74.5515 41.1193C74.2421 41.1193 73.9976 40.9666 73.9517 40.6895C73.7493 39.4377 75.5791 37.1831 76.7596 35.7927C76.4104 35.6412 76.0013 35.5504 75.5753 35.5297C75.1358 35.6338 74.7147 35.7652 74.3185 35.9219C73.6751 35.7426 72.9911 35.6246 72.2899 35.5719C70.9273 35.5655 69.5837 35.769 68.3819 36.1638C63.6562 37.7279 61.75 40.2503 61.9868 41.7205C62.0708 42.2372 63.236 42.3757 63.7632 42.3781C65.7841 42.3781 68.867 41.2649 71.3158 39.6537C71.4762 39.5528 71.6978 39.6537 71.6176 39.7313C71.239 40.3359 71.127 40.9914 71.2929 41.6312C71.4724 42.0141 71.8086 42.2254 72.2899 42.2419C74.0358 42.3029 76.049 41.5373 77.1607 41.0676C77.2819 41.0235 77.3828 40.9611 77.4537 40.8863C77.5246 40.8114 77.5631 40.7267 77.5657 40.6401C77.6764 40.4335 78.5627 40.0013 78.4138 39.7947C78.4138 39.7947 77.1302 40.3513 76.7176 40.5157M66.0897 40.9455C65.9991 40.9589 65.905 40.9611 65.813 40.9517C65.721 40.9424 65.633 40.9218 65.5542 40.8911C65.4755 40.8604 65.4075 40.8203 65.3545 40.7732C65.3014 40.726 65.2644 40.6728 65.2455 40.6167C64.9933 39.0948 68.6646 36.2859 71.6634 36.199C72.1218 36.1849 73.1036 36.5302 73.4054 36.765C71.0866 39.2639 67.7553 40.5227 66.0897 40.9455Z" fill="white"/>
</g>
<defs>
<clipPath id="clip0_18_134">
<rect width="200" height="48.3852" fill="white" transform="translate(0 0.0476074)"/>
</clipPath>
</defs>
</svg>
